Land_normalized_Motion_pl07
version=1
nRows=20
nColumns=43
inDegrees=yes
endheader
time		pelvis_tilt		pelvis_list		pelvis_rotation		pelvis_tx		pelvis_ty		pelvis_tz		hip_flexion_r		hip_adduction_r		hip_rotation_r		knee_angle_r		ankle_angle_r		subtalar_angle_r		mtp_angle_r		hip_flexion_l		hip_adduction_l		hip_rotation_l		knee_angle_l		ankle_angle_l		subtalar_angle_l		mtp_angle_l		lumbar_extension		lumbar_bending		lumbar_rotation		neck_flexion		neck_lateral_bending		neck_rotation		arm_flex_r		arm_add_r		arm_rot_r		elbow_flex_r		pro_sup_r		wrist_flex_r		wrist_dev_r		hand_finger_flex_r		arm_flex_l		arm_add_l		arm_rot_l		elbow_flex_l		pro_sup_l		wrist_flex_l		wrist_dev_l		hand_finger_flex_l		
3.151970		-1.635168		10.759408		94.630708		-0.002712		0.422854		0.435753		85.089751		-7.671928		4.932560		-142.183482		14.501817		9.768888		32.287148		82.060910		-9.829870		4.449423		-140.066895		20.135836		11.181637		36.005419		-57.185426		-2.720028		1.156267		8.283547		10.461027		-6.274801		62.748492		-25.543513		7.477348		52.069383		118.164175		-17.467127		-16.675133		-33.462118		69.040972		-21.123257		18.442663		58.106421		142.714863		-31.903268		-8.314229		-12.027099		
3.154596		-1.710816		10.768153		94.704670		-0.002647		0.420022		0.435002		85.420754		-7.845085		4.955888		-142.634784		14.635207		9.550148		32.427309		82.422739		-9.858410		4.443184		-140.541685		20.099687		11.166639		36.070871		-57.450974		-2.762560		1.230419		8.548609		10.580230		-6.466496		64.466575		-25.630421		7.974253		51.957156		118.279660		-17.380859		-16.535176		-33.508969		71.141191		-20.349434		18.923286		57.477270		143.047878		-31.583592		-8.551574		-12.218958		
3.157222		-1.794761		10.769421		94.795894		-0.002569		0.417346		0.434310		85.711549		-7.984793		4.977214		-143.052168		14.770816		9.287820		32.550973		82.775909		-9.851670		4.419028		-140.965529		20.043850		11.088061		36.130151		-57.730160		-2.809832		1.272232		8.805315		10.706941		-6.674311		66.172458		-25.707857		8.457915		51.845693		118.474760		-17.254063		-16.367645		-33.550146		73.223094		-19.577652		19.375231		56.833066		143.416875		-31.292912		-8.750788		-12.441345		
3.159848		-1.886356		10.754126		94.884728		-0.002453		0.414825		0.433688		85.985405		-8.075636		4.994241		-143.435373		14.888371		8.969663		32.668340		83.119306		-9.831093		4.374890		-141.341949		19.987736		10.959096		36.190461		-58.015180		-2.873116		1.293361		9.079307		10.840414		-6.885689		67.866303		-25.762615		8.909948		51.739935		118.728905		-17.093772		-16.162787		-33.601554		75.283241		-18.809587		19.805804		56.170052		143.813908		-31.044840		-8.893942		-12.720964		
3.162475		-1.950634		10.633077		94.931122		-0.002285		0.412223		0.433028		86.386498		-8.124045		4.994028		-143.818256		14.984913		8.769787		32.726874		83.559400		-9.843503		4.356842		-141.715205		19.989603		10.883648		36.224076		-58.192307		-2.929293		1.270516		9.459818		10.858252		-6.950859		69.535959		-25.566921		9.128137		51.571538		118.878392		-16.898600		-15.953013		-33.588191		77.137706		-18.091412		19.989406		55.687703		144.015030		-30.777596		-8.866408		-12.835804		
3.165101		-2.071053		10.630638		95.016053		-0.002040		0.410166		0.432631		86.568028		-8.114663		5.018627		-144.106191		15.049503		8.227456		32.831907		83.831676		-9.809730		4.274030		-141.980260		19.916641		10.690531		36.284504		-58.538335		-3.046606		1.266578		9.599634		11.105055		-7.215097		71.226409		-25.715402		9.706470		51.491511		119.336124		-16.597483		-15.700837		-33.656474		79.251164		-17.387373		20.591101		54.941496		144.550218		-30.590639		-8.953857		-13.277925		
3.167727		-2.225189		10.639981		95.044921		-0.001456		0.408365		0.432244		86.751693		-8.089714		4.925333		-144.398901		14.997600		7.533822		33.039598		84.016018		-9.882081		4.179168		-142.211130		19.892494		10.464042		36.404892		-58.925065		-3.261421		1.266357		9.960239		11.330613		-7.437462		72.790342		-25.648106		9.857000		51.519252		119.848854		-16.358457		-15.195118		-34.014320		81.316452		-16.483898		20.984672		54.011058		145.120969		-30.570723		-8.769809		-14.282890		
3.170354		-2.254562		10.428274		95.061018		-0.001174		0.406207		0.431786		87.187821		-8.046621		4.926247		-144.661777		15.077652		7.335841		33.096135		84.506725		-9.891717		4.191089		-142.466994		19.915344		10.457784		36.436943		-59.059445		-3.334872		1.217035		10.285905		11.360604		-7.432413		74.398470		-25.386478		10.036925		51.320548		120.054377		-16.003804		-14.975489		-34.024330		83.086113		-15.869123		21.145692		53.627559		145.281126		-30.200907		-8.667400		-14.488996		
3.172980		-2.360962		10.411183		95.058049		-0.000675		0.404657		0.431494		87.374211		-7.992383		4.852883		-144.887472		15.084883		6.674036		33.237576		84.709824		-9.949591		4.148962		-142.666665		19.875288		10.393651		36.512683		-59.425277		-3.518164		1.191113		10.483976		11.604112		-7.514759		76.016891		-25.283907		10.283350		51.200005		120.662562		-15.446027		-14.582608		-34.356939		85.054682		-15.170172		21.581051		52.905997		145.732807		-29.858937		-8.465705		-15.518902		
3.175606		-2.390655		10.141354		95.074351		-0.000284		0.402686		0.431102		87.851245		-7.988299		4.801449		-145.134177		15.214946		6.585771		33.259615		85.248230		-9.973002		4.187750		-142.893145		19.873549		10.398702		36.521144		-59.513981		-3.594538		1.084910		10.806825		11.620836		-7.484762		77.591125		-24.967832		10.482985		50.984636		120.805148		-15.110890		-14.424883		-34.309262		86.723625		-14.614421		21.662182		52.529947		145.813555		-29.447985		-8.372804		-15.581515		
3.178232		-2.437525		9.961343		95.089774		0.000072		0.401062		0.430808		88.191293		-7.981638		4.746019		-145.345748		15.386207		6.335448		33.260348		85.663364		-9.981729		4.198018		-143.089404		19.792729		10.360947		36.516389		-59.711290		-3.685505		0.992445		11.016752		11.753111		-7.454130		79.198166		-24.749527		10.804430		50.747043		121.077342		-14.692193		-14.259231		-34.292707		88.461906		-14.059582		21.876890		52.048547		145.975524		-29.046833		-8.291489		-15.825851		
3.180859		-2.487810		9.820446		95.127167		0.000485		0.399756		0.430568		88.416482		-7.962121		4.666358		-145.512694		15.570157		5.998393		33.238039		86.023053		-9.986875		4.190143		-143.246014		19.678290		10.257637		36.500079		-59.979494		-3.774123		0.889575		11.202666		11.907449		-7.415627		80.770178		-24.545779		11.093837		50.538460		121.407666		-14.274988		-14.090509		-34.340695		90.208510		-13.487381		22.091550		51.535917		146.150284		-28.686688		-8.184064		-16.249297		
3.183485		-2.505741		9.555287		95.169481		0.000829		0.398317		0.430287		88.782354		-7.947041		4.592103		-145.685390		15.742531		5.848826		33.217040		86.523445		-9.978030		4.192047		-143.411312		19.623797		10.157592		36.486935		-60.117856		-3.811330		0.775991		11.521907		11.905633		-7.347283		82.260055		-24.175075		11.157660		50.326001		121.523406		-14.031366		-13.928051		-34.333062		91.788770		-12.880338		22.045843		51.112871		146.163221		-28.371553		-8.009072		-16.402191		
3.186111		-2.514327		9.300102		95.227272		0.001055		0.397017		0.430082		89.108917		-7.936835		4.519619		-145.828309		15.986230		5.629786		33.175405		87.011841		-9.920934		4.173356		-143.555292		19.493136		9.966905		36.460792		-60.273716		-3.818380		0.673585		11.793293		11.959675		-7.284786		83.772893		-23.884813		11.345890		50.100959		121.693640		-13.721918		-13.807792		-34.305340		93.384586		-12.317051		22.097641		50.673934		146.202101		-28.029660		-7.876992		-16.585116		
3.188737		-2.507199		9.157874		95.333566		0.001118		0.396195		0.430001		89.227133		-7.972086		4.368811		-145.913646		16.220242		5.099720		32.888932		87.365365		-9.778713		4.063727		-143.647086		19.180177		9.190545		36.351466		-60.583448		-3.749286		0.593743		12.053518		12.028210		-7.242350		85.303612		-23.640900		11.510794		49.905986		122.021508		-13.281517		-13.755360		-34.553767		95.017020		-11.751300		22.234539		50.176578		146.153051		-27.602198		-7.727725		-17.599321		
3.191364		-2.499791		8.929540		95.442428		0.001224		0.395412		0.429936		89.401262		-7.963046		4.235399		-145.967980		16.439168		4.662447		32.601271		87.799492		-9.638412		3.952971		-143.709794		18.921250		8.526448		36.249477		-60.816984		-3.679800		0.486237		12.302632		12.049044		-7.197905		86.769562		-23.357347		11.620724		49.748432		122.279658		-12.881944		-13.707712		-34.806587		96.571923		-11.215933		22.284779		49.750998		146.053679		-27.150929		-7.573607		-18.550618		
3.193990		-2.483752		8.541184		95.545441		0.001267		0.394334		0.429845		89.775216		-7.939670		4.174050		-146.024983		16.775716		4.434596		32.452938		88.420737		-9.482436		3.899954		-143.781504		18.712685		8.235827		36.192657		-60.859756		-3.603121		0.354303		12.500485		12.072779		-7.119196		88.198288		-23.094108		11.873454		49.584080		122.346946		-12.537815		-13.703644		-34.826978		98.006610		-10.761062		22.271377		49.458709		145.956877		-26.695635		-7.496124		-18.813376		
3.196616		-2.461182		8.168774		95.630837		0.001321		0.393438		0.429796		90.133976		-7.904979		4.099197		-146.056586		17.024253		4.216048		32.316150		88.992306		-9.342774		3.844659		-143.833015		18.539898		7.921190		36.140229		-60.928368		-3.522823		0.234117		12.721893		12.042795		-7.028524		89.580960		-22.746001		11.995137		49.428387		122.351931		-12.293971		-13.674074		-34.860137		99.394883		-10.266101		22.157452		49.144477		145.826949		-26.342863		-7.360780		-19.046899		
3.199242		-2.418753		7.872774		95.751955		0.001262		0.392971		0.429898		90.357124		-7.909892		3.938254		-146.031713		17.154718		3.656320		31.786726		89.467213		-9.137472		3.709766		-143.835004		18.186870		7.006033		35.963369		-61.110853		-3.361176		0.113544		12.948771		11.928433		-6.912759		91.033467		-22.368398		12.185318		49.173534		122.126722		-12.036610		-13.836581		-35.177525		100.797719		-9.825977		22.107678		48.796523		145.400033		-25.942982		-7.294231		-19.969524		
3.201869		-2.404402		7.490746		95.827699		0.001389		0.392488		0.429982		90.681931		-7.846798		3.849641		-145.993913		17.324217		3.383750		31.519429		89.994265		-9.009213		3.633074		-143.816022		17.994652		6.658041		35.873441		-61.212497		-3.287904		-0.027412		13.168298		11.853144		-6.809717		92.395441		-21.998902		12.322942		49.007203		122.024045		-11.839697		-13.873500		-35.302160		102.159911		-9.398594		22.017340		48.495193		145.170002		-25.622137		-7.194624		-20.391761		
